# xmcd
#
# Track frame offsets: 
#        150
#        1829
#        19740
#        23779
#        42965
#        60462
#        74471
#        79294
#        95442
#        118936
#        137669
#        152114
#        167246
#        181719
#        202345
#
# Disc length: 2943 seconds
#
# Revision: 3
# Processed by: cddbd v1.5.2PL0 Copyright (c) Steve Scherf et al.
# Submitted via: ExactAudioCopyFreeDBPlugin 1.0
#
DISCID=c80b7d0f
DTITLE=AI - What's goin' on A.I.
DYEAR=2006
DGENRE=J-Pop
TTITLE0=Intro
TTITLE1=MUSIC
TTITLE2=What's goin' on pt.1
TTITLE3=I Wanna Know
TTITLE4=go find your way
TTITLE5=We gonna
TTITLE6=What's goin' on pt.2
TTITLE7=No Way
TTITLE8=Believe
TTITLE9=ooh
TTITLE10=Beautiful feat. Trey Songz (Remix)
TTITLE11=Too Much feat. Rain (Remix)
TTITLE12=Famous feat. Shaggy and Yalin
TTITLE13=未来
TTITLE14=Love is....
EXTD=YEAR: 2006
EXTT0=
EXTT1=
EXTT2=
EXTT3=
EXTT4=
EXTT5=
EXTT6=
EXTT7=
EXTT8=
EXTT9=
EXTT10=
EXTT11=
EXTT12=
EXTT13=
EXTT14=
PLAYORDER=
